<svg width="358" height="51" viewBox="0 0 358 51" fill="none" xmlns="http://www.w3.org/2000/svg">
<rect y="0.337158" width="358" height="50.152" rx="2" fill="black"/>
<path d="M130.729 23C130.243 20.3153 128.095 18.7301 125.462 18.7301C122.112 18.7301 119.683 21.3125 119.683 25.4545C119.683 29.5966 122.112 32.179 125.462 32.179C128.095 32.179 130.243 30.5938 130.729 27.9091H129.143C128.76 29.7244 127.2 30.696 125.462 30.696C123.084 30.696 121.217 28.8551 121.217 25.4545C121.217 22.054 123.084 20.2131 125.462 20.2131C127.2 20.2131 128.76 21.1847 129.143 23H130.729ZM137.074 32.2045C139.733 32.2045 141.523 30.1847 141.523 27.142C141.523 24.0739 139.733 22.054 137.074 22.054C134.415 22.054 132.626 24.0739 132.626 27.142C132.626 30.1847 134.415 32.2045 137.074 32.2045ZM137.074 30.8494C135.055 30.8494 134.134 29.1108 134.134 27.142C134.134 25.1733 135.055 23.4091 137.074 23.4091C139.094 23.4091 140.015 25.1733 140.015 27.142C140.015 29.1108 139.094 30.8494 137.074 30.8494ZM144.547 22.1818H142.808L145.927 27.0909L142.808 32H144.547L146.899 28.1903L149.251 32H150.99L147.819 27.0909L150.99 22.1818H149.251L146.899 26.196L144.547 22.1818ZM153.142 35.6818H154.651V30.4915H154.779C155.111 31.0284 155.75 32.2045 157.642 32.2045C160.097 32.2045 161.81 30.2358 161.81 27.1165C161.81 24.0227 160.097 22.054 157.617 22.054C155.699 22.054 155.111 23.2301 154.779 23.7415H154.6V22.1818H153.142V35.6818ZM154.625 27.0909C154.625 24.892 155.597 23.4091 157.438 23.4091C159.355 23.4091 160.301 25.0199 160.301 27.0909C160.301 29.1875 159.33 30.8494 157.438 30.8494C155.623 30.8494 154.625 29.3153 154.625 27.0909ZM167 32.2301C168.713 32.2301 169.608 31.3097 169.915 30.6705H169.992V32H171.5V25.5312C171.5 22.4119 169.123 22.054 167.87 22.054C166.387 22.054 164.699 22.5653 163.932 24.3551L165.364 24.8665C165.696 24.1506 166.483 23.3835 167.921 23.3835C169.308 23.3835 169.992 24.1186 169.992 25.3778V25.429C169.992 26.1577 169.25 26.0938 167.461 26.3239C165.639 26.5604 163.651 26.9631 163.651 29.2131C163.651 31.1307 165.134 32.2301 167 32.2301ZM167.23 30.875C166.029 30.875 165.159 30.3381 165.159 29.2898C165.159 28.1392 166.208 27.7812 167.384 27.6278C168.023 27.5511 169.736 27.3722 169.992 27.0653V28.446C169.992 29.6733 169.02 30.875 167.23 30.875ZM175.762 22.1818H174.254V32H175.762V27.8068H180.467V32H181.975V22.1818H180.467V26.4006H175.762V22.1818ZM188.847 32.2045C190.841 32.2045 192.298 31.2074 192.759 29.7244L191.301 29.3153C190.918 30.3381 190.029 30.8494 188.847 30.8494C187.076 30.8494 185.855 29.7053 185.785 27.6023H192.912V26.9631C192.912 23.3068 190.739 22.054 188.693 22.054C186.034 22.054 184.27 24.1506 184.27 27.1676C184.27 30.1847 186.009 32.2045 188.847 32.2045ZM185.785 26.2983C185.887 24.7706 186.968 23.4091 188.693 23.4091C190.33 23.4091 191.378 24.6364 191.378 26.2983H185.785ZM196.715 22.1818H195.207V32H196.715V27.8068H201.42V32H202.928V22.1818H201.42V26.4006H196.715V22.1818ZM207.192 29.7756V22.1818H205.683V32H207.448L212.152 24.4062V32H213.661V22.1818H211.922L207.192 29.7756ZM220.54 32.2045C222.534 32.2045 223.992 31.2074 224.452 29.7244L222.995 29.3153C222.611 30.3381 221.723 30.8494 220.54 30.8494C218.77 30.8494 217.549 29.7053 217.478 27.6023H224.605V26.9631C224.605 23.3068 222.432 22.054 220.387 22.054C217.728 22.054 215.963 24.1506 215.963 27.1676C215.963 30.1847 217.702 32.2045 220.54 32.2045ZM217.478 26.2983C217.581 24.7706 218.661 23.4091 220.387 23.4091C222.023 23.4091 223.071 24.6364 223.071 26.2983H217.478ZM228 32.1023C228.632 32.1023 229.15 31.5845 229.15 30.9517C229.15 30.3189 228.632 29.8011 228 29.8011C227.367 29.8011 226.849 30.3189 226.849 30.9517C226.849 31.5845 227.367 32.1023 228 32.1023ZM232.957 32.1023C233.589 32.1023 234.107 31.5845 234.107 30.9517C234.107 30.3189 233.589 29.8011 232.957 29.8011C232.324 29.8011 231.806 30.3189 231.806 30.9517C231.806 31.5845 232.324 32.1023 232.957 32.1023ZM237.914 32.1023C238.547 32.1023 239.064 31.5845 239.064 30.9517C239.064 30.3189 238.547 29.8011 237.914 29.8011C237.281 29.8011 236.763 30.3189 236.763 30.9517C236.763 31.5845 237.281 32.1023 237.914 32.1023Z" fill="white"/>
</svg>
