<svg width="358" height="50" viewBox="0 0 358 50" fill="none" xmlns="http://www.w3.org/2000/svg">
<rect width="358" height="50" rx="2" fill="black"/>
<path d="M144.475 23H142.89C142.796 22.544 142.632 22.1435 142.397 21.7983C142.167 21.4531 141.886 21.1634 141.554 20.929C141.225 20.6903 140.861 20.5114 140.461 20.392C140.06 20.2727 139.642 20.2131 139.208 20.2131C138.415 20.2131 137.697 20.4134 137.054 20.8139C136.414 21.2145 135.905 21.8047 135.526 22.5845C135.151 23.3643 134.963 24.321 134.963 25.4545C134.963 26.5881 135.151 27.5447 135.526 28.3246C135.905 29.1044 136.414 29.6946 137.054 30.0952C137.697 30.4957 138.415 30.696 139.208 30.696C139.642 30.696 140.06 30.6364 140.461 30.517C140.861 30.3977 141.225 30.2209 141.554 29.9865C141.886 29.7479 142.167 29.456 142.397 29.1108C142.632 28.7614 142.796 28.3608 142.89 27.9091H144.475C144.355 28.5781 144.138 29.1768 143.823 29.7053C143.507 30.2337 143.115 30.6832 142.647 31.054C142.178 31.4205 141.652 31.6996 141.068 31.8913C140.488 32.0831 139.868 32.179 139.208 32.179C138.091 32.179 137.098 31.9062 136.229 31.3608C135.36 30.8153 134.676 30.0398 134.177 29.0341C133.679 28.0284 133.429 26.8352 133.429 25.4545C133.429 24.0739 133.679 22.8807 134.177 21.875C134.676 20.8693 135.36 20.0938 136.229 19.5483C137.098 19.0028 138.091 18.7301 139.208 18.7301C139.868 18.7301 140.488 18.826 141.068 19.0178C141.652 19.2095 142.178 19.4908 142.647 19.8615C143.115 20.228 143.507 20.6754 143.823 21.2038C144.138 21.728 144.355 22.3267 144.475 23ZM150.82 32.2045C149.934 32.2045 149.156 31.9936 148.487 31.5717C147.823 31.1499 147.303 30.5597 146.928 29.8011C146.557 29.0426 146.372 28.1562 146.372 27.142C146.372 26.1193 146.557 25.2266 146.928 24.4638C147.303 23.701 147.823 23.1087 148.487 22.6868C149.156 22.2649 149.934 22.054 150.82 22.054C151.707 22.054 152.482 22.2649 153.147 22.6868C153.816 23.1087 154.336 23.701 154.707 24.4638C155.082 25.2266 155.269 26.1193 155.269 27.142C155.269 28.1562 155.082 29.0426 154.707 29.8011C154.336 30.5597 153.816 31.1499 153.147 31.5717C152.482 31.9936 151.707 32.2045 150.82 32.2045ZM150.82 30.8494C151.494 30.8494 152.048 30.6768 152.482 30.3317C152.917 29.9865 153.239 29.5327 153.448 28.9702C153.656 28.4077 153.761 27.7983 153.761 27.142C153.761 26.4858 153.656 25.8743 153.448 25.3075C153.239 24.7408 152.917 24.2827 152.482 23.9332C152.048 23.5838 151.494 23.4091 150.82 23.4091C150.147 23.4091 149.593 23.5838 149.159 23.9332C148.724 24.2827 148.402 24.7408 148.193 25.3075C147.985 25.8743 147.88 26.4858 147.88 27.142C147.88 27.7983 147.985 28.4077 148.193 28.9702C148.402 29.5327 148.724 29.9865 149.159 30.3317C149.593 30.6768 150.147 30.8494 150.82 30.8494ZM158.293 22.1818L160.645 26.196L162.997 22.1818H164.736L161.566 27.0909L164.736 32H162.997L160.645 28.1903L158.293 32H156.554L159.673 27.0909L156.554 22.1818H158.293ZM166.888 35.6818V22.1818H168.346V23.7415H168.525C168.636 23.571 168.789 23.3537 168.985 23.0895C169.185 22.821 169.471 22.5824 169.842 22.3736C170.217 22.1605 170.724 22.054 171.363 22.054C172.19 22.054 172.918 22.2607 173.549 22.674C174.18 23.0874 174.672 23.6733 175.026 24.4318C175.379 25.1903 175.556 26.0852 175.556 27.1165C175.556 28.1562 175.379 29.0575 175.026 29.8203C174.672 30.5788 174.182 31.1669 173.555 31.5845C172.929 31.9979 172.207 32.2045 171.388 32.2045C170.758 32.2045 170.253 32.1001 169.874 31.8913C169.494 31.6783 169.202 31.4375 168.998 31.169C168.793 30.8963 168.636 30.6705 168.525 30.4915H168.397V35.6818H166.888ZM168.371 27.0909C168.371 27.8324 168.48 28.4865 168.697 29.0533C168.915 29.6158 169.232 30.0568 169.65 30.3764C170.067 30.6918 170.579 30.8494 171.184 30.8494C171.815 30.8494 172.341 30.6832 172.763 30.3509C173.189 30.0142 173.509 29.5625 173.722 28.9957C173.939 28.4247 174.048 27.7898 174.048 27.0909C174.048 26.4006 173.941 25.7784 173.728 25.2244C173.519 24.6662 173.202 24.2251 172.776 23.9013C172.354 23.5732 171.823 23.4091 171.184 23.4091C170.57 23.4091 170.055 23.5646 169.637 23.8757C169.219 24.1825 168.904 24.6129 168.691 25.1669C168.478 25.7166 168.371 26.358 168.371 27.0909ZM180.746 32.2301C180.124 32.2301 179.56 32.1129 179.053 31.8786C178.545 31.6399 178.143 31.2969 177.844 30.8494C177.546 30.3977 177.397 29.8523 177.397 29.2131C177.397 28.6506 177.508 28.1946 177.729 27.8452C177.951 27.4915 178.247 27.2145 178.618 27.0142C178.989 26.8139 179.398 26.6648 179.845 26.5668C180.297 26.4645 180.751 26.3835 181.207 26.3239C181.803 26.2472 182.287 26.1896 182.658 26.1513C183.033 26.1087 183.305 26.0384 183.476 25.9403C183.651 25.8423 183.738 25.6719 183.738 25.429V25.3778C183.738 24.7472 183.565 24.2571 183.22 23.9077C182.879 23.5582 182.362 23.3835 181.667 23.3835C180.947 23.3835 180.382 23.5412 179.973 23.8565C179.564 24.1719 179.276 24.5085 179.11 24.8665L177.678 24.3551C177.934 23.7585 178.275 23.294 178.701 22.9616C179.131 22.625 179.6 22.3906 180.107 22.2585C180.619 22.1222 181.121 22.054 181.616 22.054C181.931 22.054 182.293 22.0923 182.702 22.169C183.116 22.2415 183.514 22.3928 183.898 22.6229C184.286 22.853 184.607 23.2003 184.863 23.6648C185.119 24.1293 185.246 24.7514 185.246 25.5312V32H183.738V30.6705H183.661C183.559 30.8835 183.388 31.1115 183.15 31.3544C182.911 31.5973 182.594 31.804 182.197 31.9744C181.801 32.1449 181.317 32.2301 180.746 32.2301ZM180.977 30.875C181.573 30.875 182.076 30.7578 182.485 30.5234C182.898 30.2891 183.21 29.9865 183.418 29.6158C183.631 29.245 183.738 28.8551 183.738 28.446V27.0653C183.674 27.142 183.533 27.2124 183.316 27.2763C183.103 27.3359 182.856 27.3892 182.575 27.4361C182.298 27.4787 182.027 27.517 181.763 27.5511C181.503 27.581 181.292 27.6065 181.13 27.6278C180.738 27.679 180.371 27.7621 180.031 27.8771C179.694 27.9879 179.421 28.1562 179.212 28.3821C179.008 28.6037 178.906 28.9062 178.906 29.2898C178.906 29.8139 179.099 30.2102 179.487 30.4787C179.879 30.7429 180.376 30.875 180.977 30.875ZM194.571 26.4006V27.8068H189.15V26.4006H194.571ZM189.508 22.1818V32H188V22.1818H189.508ZM195.721 22.1818V32H194.213V22.1818H195.721ZM199.985 29.7756L204.715 22.1818H206.454V32H204.945V24.4062L200.241 32H198.476V22.1818H199.985V29.7756ZM207.881 23.5881V22.1818H215.858V23.5881H212.636V32H211.128V23.5881H207.881ZM219.362 25.7358H222.175C223.325 25.7358 224.205 26.0277 224.815 26.6115C225.424 27.1953 225.729 27.9347 225.729 28.8295C225.729 29.4176 225.593 29.9524 225.32 30.4339C225.047 30.9112 224.646 31.2926 224.118 31.5781C223.59 31.8594 222.942 32 222.175 32H218.058V22.1818H219.567V30.5938H222.175C222.771 30.5938 223.262 30.4361 223.645 30.1207C224.029 29.8054 224.22 29.4006 224.22 28.9062C224.22 28.3864 224.029 27.9624 223.645 27.6342C223.262 27.3061 222.771 27.142 222.175 27.142H219.362V25.7358Z" fill="white"/>
</svg>
