<svg width="358" height="50" viewBox="0 0 358 50" fill="none" xmlns="http://www.w3.org/2000/svg">
<rect width="358" height="50" rx="2" fill="black"/>
<path d="M168.13 34.7919V30.2152H168.974C169.264 29.951 169.536 29.5781 169.792 29.0966C170.052 28.6108 170.271 27.9631 170.45 27.1534C170.634 26.3395 170.755 25.3061 170.815 24.0533L171.096 18.5306H178.869V30.2152H180.377V34.7663H178.869V31.6215H169.639V34.7919H168.13ZM170.866 30.2152H177.36V19.9368H172.528L172.323 24.0533C172.272 25.0078 172.183 25.8729 172.055 26.6484C171.927 27.4198 171.763 28.1037 171.563 28.7003C171.362 29.2926 171.13 29.7976 170.866 30.2152ZM185.457 31.8516C184.835 31.8516 184.271 31.7344 183.763 31.5C183.256 31.2614 182.854 30.9183 182.555 30.4709C182.257 30.0192 182.108 29.4737 182.108 28.8345C182.108 28.272 182.219 27.8161 182.44 27.4666C182.662 27.1129 182.958 26.8359 183.329 26.6357C183.7 26.4354 184.109 26.2862 184.556 26.1882C185.008 26.0859 185.462 26.005 185.918 25.9453C186.514 25.8686 186.998 25.8111 187.369 25.7727C187.744 25.7301 188.016 25.6598 188.187 25.5618C188.362 25.4638 188.449 25.2933 188.449 25.0504V24.9993C188.449 24.3686 188.276 23.8786 187.931 23.5291C187.59 23.1797 187.072 23.005 186.378 23.005C185.658 23.005 185.093 23.1627 184.684 23.478C184.275 23.7933 183.987 24.13 183.821 24.4879L182.389 23.9766C182.645 23.38 182.986 22.9155 183.412 22.5831C183.842 22.2465 184.311 22.0121 184.818 21.88C185.33 21.7436 185.832 21.6754 186.327 21.6754C186.642 21.6754 187.004 21.7138 187.413 21.7905C187.827 21.8629 188.225 22.0142 188.609 22.2443C188.996 22.4744 189.318 22.8217 189.574 23.2862C189.83 23.7507 189.957 24.3729 189.957 25.1527V31.6215H188.449V30.2919H188.372C188.27 30.505 188.099 30.733 187.861 30.9759C187.622 31.2188 187.305 31.4254 186.908 31.5959C186.512 31.7663 186.028 31.8516 185.457 31.8516ZM185.688 30.4965C186.284 30.4965 186.787 30.3793 187.196 30.1449C187.609 29.9105 187.92 29.608 188.129 29.2372C188.342 28.8665 188.449 28.4766 188.449 28.0675V26.6868C188.385 26.7635 188.244 26.8338 188.027 26.8977C187.814 26.9574 187.567 27.0107 187.286 27.0575C187.009 27.1002 186.738 27.1385 186.474 27.1726C186.214 27.2024 186.003 27.228 185.841 27.2493C185.449 27.3004 185.082 27.3835 184.741 27.4986C184.405 27.6094 184.132 27.7777 183.923 28.0036C183.719 28.2252 183.616 28.5277 183.616 28.9112C183.616 29.4354 183.81 29.8317 184.198 30.1002C184.59 30.3644 185.087 30.4965 185.688 30.4965Z" fill="white"/>
</svg>
